{
  "accessors": [
    {
      "bufferView": 2,
      "componentType": 5126,
      "count": 511,
      "max": [
        1.004755973815918,
        1.4271955490112305,
        2.1297950744628906
      ],
      "min": [
        -1.004755973815918,
        0.1960442066192627,
        -2.185009241104126
      ],
      "type": "VEC3"
    },
    {
      "bufferView": 2,
      "byteOffset": 6132,
      "componentType": 5126,
      "count": 511,
      "max": [
        0.9999231100082397,
        0.9997557997703552,
        0.9987088441848755
      ],
      "min": [
        -0.9999231100082397,
        -1.0,
        -0.9999558925628662
      ],
      "type": "VEC3"
    },
    {
      "bufferView": 1,
      "componentType": 5126,
      "count": 511,
      "max": [
        0.9862982034683228,
        0.9420041441917419
      ],
      "min": [
        0.015981033444404602,
        0.06214219331741333
      ],
      "type": "VEC2"
    },
    {
      "bufferView": 1,
      "byteOffset": 4088,
      "componentType": 5126,
      "count": 511,
      "max": [
        0.9862982034683228,
        0.9420041441917419
      ],
      "min": [
        0.015981033444404602,
        0.06214219331741333
      ],
      "type": "VEC2"
    },
    {
      "bufferView": 1,
      "byteOffset": 8176,
      "componentType": 5126,
      "count": 511,
      "max": [
        0.9862982034683228,
        0.9420041441917419
      ],
      "min": [
        0.015981033444404602,
        0.06214219331741333
      ],
      "type": "VEC2"
    },
    {
      "bufferView": 1,
      "byteOffset": 12264,
      "componentType": 5126,
      "count": 511,
      "max": [
        0.9862982034683228,
        0.9420041441917419
      ],
      "min": [
        0.015981033444404602,
        0.06214219331741333
      ],
      "type": "VEC2"
    },
    {
      "bufferView": 0,
      "componentType": 5125,
      "count": 1584,
      "type": "SCALAR"
    },
    {
      "bufferView": 2,
      "byteOffset": 12264,
      "componentType": 5126,
      "count": 192,
      "max": [
        0.8747585415840149,
        0.30950355529785156,
        0.30950379371643066
      ],
      "min": [
        -0.8747585415840149,
        -0.3095034956932068,
        -0.30950331687927246
      ],
      "type": "VEC3"
    },
    {
      "bufferView": 2,
      "byteOffset": 14568,
      "componentType": 5126,
      "count": 192,
      "max": [
        1.0,
        0.9807840585708618,
        0.9807840585708618
      ],
      "min": [
        -1.0,
        -0.9807840585708618,
        -0.9807840585708618
      ],
      "type": "VEC3"
    },
    {
      "bufferView": 1,
      "byteOffset": 16352,
      "componentType": 5126,
      "count": 192,
      "max": [
        0.9048194885253906,
        0.7771795392036438
      ],
      "min": [
        0.11189670115709305,
        0.6211914420127869
      ],
      "type": "VEC2"
    },
    {
      "bufferView": 1,
      "byteOffset": 17888,
      "componentType": 5126,
      "count": 192,
      "max": [
        0.9048194885253906,
        0.7771795392036438
      ],
      "min": [
        0.11189670115709305,
        0.6211914420127869
      ],
      "type": "VEC2"
    },
    {
      "bufferView": 1,
      "byteOffset": 19424,
      "componentType": 5126,
      "count": 192,
      "max": [
        0.9048194885253906,
        0.7771795392036438
      ],
      "min": [
        0.11189670115709305,
        0.6211914420127869
      ],
      "type": "VEC2"
    },
    {
      "bufferView": 1,
      "byteOffset": 20960,
      "componentType": 5126,
      "count": 192,
      "max": [
        0.9048194885253906,
        0.7771795392036438
      ],
      "min": [
        0.11189670115709305,
        0.6211914420127869
      ],
      "type": "VEC2"
    },
    {
      "bufferView": 0,
      "byteOffset": 6336,
      "componentType": 5125,
      "count": 360,
      "type": "SCALAR"
    },
    {
      "bufferView": 2,
      "byteOffset": 16872,
      "componentType": 5126,
      "count": 192,
      "max": [
        0.8726898431777954,
        0.30950355529785156,
        0.30950355529785156
      ],
      "min": [
        -0.8726898431777954,
        -0.3095034956932068,
        -0.30950355529785156
      ],
      "type": "VEC3"
    },
    {
      "bufferView": 2,
      "byteOffset": 19176,
      "componentType": 5126,
      "count": 192,
      "max": [
        1.0,
        0.9807840585708618,
        0.9807840585708618
      ],
      "min": [
        -1.0,
        -0.9807840585708618,
        -0.9807840585708618
      ],
      "type": "VEC3"
    },
    {
      "bufferView": 1,
      "byteOffset": 22496,
      "componentType": 5126,
      "count": 192,
      "max": [
        0.9037758708000183,
        0.7772526741027832
      ],
      "min": [
        0.11109113693237305,
        0.6207300424575806
      ],
      "type": "VEC2"
    },
    {
      "bufferView": 1,
      "byteOffset": 24032,
      "componentType": 5126,
      "count": 192,
      "max": [
        0.9037758708000183,
        0.7772526741027832
      ],
      "min": [
        0.11109113693237305,
        0.6207300424575806
      ],
      "type": "VEC2"
    },
    {
      "bufferView": 1,
      "byteOffset": 25568,
      "componentType": 5126,
      "count": 192,
      "max": [
        0.9037758708000183,
        0.7772526741027832
      ],
      "min": [
        0.11109113693237305,
        0.6207300424575806
      ],
      "type": "VEC2"
    },
    {
      "bufferView": 1,
      "byteOffset": 27104,
      "componentType": 5126,
      "count": 192,
      "max": [
        0.9037758708000183,
        0.7772526741027832
      ],
      "min": [
        0.11109113693237305,
        0.6207300424575806
      ],
      "type": "VEC2"
    },
    {
      "bufferView": 0,
      "byteOffset": 7776,
      "componentType": 5125,
      "count": 360,
      "type": "SCALAR"
    },
    {
      "bufferView": 2,
      "byteOffset": 21480,
      "componentType": 5126,
      "count": 119,
      "max": [
        0.7686695456504822,
        1.2118632793426514,
        1.9926252365112305
      ],
      "min": [
        -0.7686695456504822,
        0.269720196723938,
        -1.1243408918380737
      ],
      "type": "VEC3"
    },
    {
      "bufferView": 2,
      "byteOffset": 22908,
      "componentType": 5126,
      "count": 119,
      "max": [
        0.9894310832023621,
        0.3676869571208954,
        0.9764147996902466
      ],
      "min": [
        -0.9894310832023621,
        -1.0,
        -0.9952449798583984
      ],
      "type": "VEC3"
    },
    {
      "bufferView": 1,
      "byteOffset": 28640,
      "componentType": 5126,
      "count": 119,
      "max": [
        0.5691999197006226,
        0.9480188488960266
      ],
      "min": [
        0.009572797454893589,
        0.010450422763824463
      ],
      "type": "VEC2"
    },
    {
      "bufferView": 1,
      "byteOffset": 29592,
      "componentType": 5126,
      "count": 119,
      "max": [
        0.5691999197006226,
        0.9480188488960266
      ],
      "min": [
        0.009572797454893589,
        0.010450422763824463
      ],
      "type": "VEC2"
    },
    {
      "bufferView": 1,
      "byteOffset": 30544,
      "componentType": 5126,
      "count": 119,
      "max": [
        0.5691999197006226,
        0.9480188488960266
      ],
      "min": [
        0.009572797454893589,
        0.010450422763824463
      ],
      "type": "VEC2"
    },
    {
      "bufferView": 1,
      "byteOffset": 31496,
      "componentType": 5126,
      "count": 119,
      "max": [
        0.5691999197006226,
        0.9480188488960266
      ],
      "min": [
        0.009572797454893589,
        0.010450422763824463
      ],
      "type": "VEC2"
    },
    {
      "bufferView": 0,
      "byteOffset": 9216,
      "componentType": 5125,
      "count": 195,
      "type": "SCALAR"
    },
    {
      "bufferView": 3,
      "componentType": 5126,
      "count": 21,
      "max": [
        0.8333333134651184
      ],
      "min": [
        0.0
      ],
      "type": "SCALAR"
    },
    {
      "bufferView": 4,
      "componentType": 5126,
      "count": 21,
      "max": [
        0.9876883625984192,
        0.0,
        -0.0,
        1.0
      ],
      "min": [
        -1.0,
        0.0,
        -0.0,
        7.549790126404332e-08
      ],
      "type": "VEC4"
    },
    {
      "bufferView": 3,
      "byteOffset": 84,
      "componentType": 5126,
      "count": 21,
      "max": [
        0.8333333134651184
      ],
      "min": [
        0.0
      ],
      "type": "SCALAR"
    },
    {
      "bufferView": 4,
      "byteOffset": 336,
      "componentType": 5126,
      "count": 21,
      "max": [
        0.9876883625984192,
        0.0,
        -0.0,
        1.0
      ],
      "min": [
        -1.0,
        0.0,
        -0.0,
        7.549790126404332e-08
      ],
      "type": "VEC4"
    }
  ],
  "animations": [
    {
      "channels": [
        {
          "sampler": 0,
          "target": {
            "node": 5,
            "path": "rotation"
          }
        },
        {
          "sampler": 1,
          "target": {
            "node": 7,
            "path": "rotation"
          }
        }
      ],
      "name": "Animation",
      "samplers": [
        {
          "input": 28,
          "interpolation": "LINEAR",
          "output": 29
        },
        {
          "input": 30,
          "interpolation": "LINEAR",
          "output": 31
        }
      ]
    }
  ],
  "asset": {
    "extras": {
      "author": "isdkv (https://sketchfab.com/isdkv)",
      "license": "CC-BY-4.0 (http://creativecommons.org/licenses/by/4.0/)",
      "source": "https://sketchfab.com/3d-models/bmw-1er-f20-lowpoly-5c2335d831844ed4b4f3adadcc3544c7",
      "title": "BMW 1er F20 lowpoly"
    },
    "generator": "Sketchfab-16.56.0",
    "version": "2.0"
  },
  "bufferViews": [
    {
      "buffer": 0,
      "byteLength": 9996,
      "name": "floatBufferViews",
      "target": 34963
    },
    {
      "buffer": 0,
      "byteLength": 32448,
      "byteOffset": 9996,
      "byteStride": 8,
      "name": "floatBufferViews",
      "target": 34962
    },
    {
      "buffer": 0,
      "byteLength": 24336,
      "byteOffset": 42444,
      "byteStride": 12,
      "name": "floatBufferViews",
      "target": 34962
    },
    {
      "buffer": 0,
      "byteLength": 168,
      "byteOffset": 66780,
      "name": "floatBufferViews"
    },
    {
      "buffer": 0,
      "byteLength": 672,
      "byteOffset": 66948,
      "byteStride": 16,
      "name": "floatBufferViews"
    }
  ],
  "buffers": [
    {
      "byteLength": 67620,
      "uri": "scene.bin"
    }
  ],
  "images": [
    {
      "uri": "textures/Material_baseColor.png"
    },
    {
      "uri": "textures/Material_metallicRoughness.png"
    },
    {
      "uri": "textures/Material_emissive.png"
    }
  ],
  "materials": [
    {
      "alphaMode": "BLEND",
      "doubleSided": true,
      "emissiveFactor": [
        1.0,
        1.0,
        1.0
      ],
      "emissiveTexture": {
        "index": 2
      },
      "name": "Material",
      "pbrMetallicRoughness": {
        "baseColorTexture": {
          "index": 0
        },
        "metallicFactor": 0.0,
        "metallicRoughnessTexture": {
          "index": 1
        }
      }
    }
  ],
  "meshes": [
    {
      "name": "Object_0",
      "primitives": [
        {
          "attributes": {
            "NORMAL": 1,
            "POSITION": 0,
            "TEXCOORD_0": 2,
            "TEXCOORD_1": 3,
            "TEXCOORD_2": 4,
            "TEXCOORD_3": 5
          },
          "indices": 6,
          "material": 0,
          "mode": 4
        }
      ]
    },
    {
      "name": "Object_1",
      "primitives": [
        {
          "attributes": {
            "NORMAL": 8,
            "POSITION": 7,
            "TEXCOORD_0": 9,
            "TEXCOORD_1": 10,
            "TEXCOORD_2": 11,
            "TEXCOORD_3": 12
          },
          "indices": 13,
          "material": 0,
          "mode": 4
        }
      ]
    },
    {
      "name": "Object_2",
      "primitives": [
        {
          "attributes": {
            "NORMAL": 15,
            "POSITION": 14,
            "TEXCOORD_0": 16,
            "TEXCOORD_1": 17,
            "TEXCOORD_2": 18,
            "TEXCOORD_3": 19
          },
          "indices": 20,
          "material": 0,
          "mode": 4
        }
      ]
    },
    {
      "name": "Object_3",
      "primitives": [
        {
          "attributes": {
            "NORMAL": 22,
            "POSITION": 21,
            "TEXCOORD_0": 23,
            "TEXCOORD_1": 24,
            "TEXCOORD_2": 25,
            "TEXCOORD_3": 26
          },
          "indices": 27,
          "material": 0,
          "mode": 4
        }
      ]
    }
  ],
  "nodes": [
    {
      "children": [
        1
      ],
      "matrix": [
        1.0,
        0.0,
        0.0,
        0.0,
        0.0,
        3.828568672208042e-16,
        -1.0,
        0.0,
        0.0,
        1.0,
        3.828568672208042e-16,
        0.0,
        0.0,
        0.0,
        0.0,
        1.0
      ],
      "name": "Sketchfab_model"
    },
    {
      "children": [
        2
      ],
      "name": "root"
    },
    {
      "children": [
        3,
        5,
        7,
        9
      ],
      "matrix": [
        1.0,
        0.0,
        0.0,
        0.0,
        0.0,
        2.220446049250313e-16,
        1.0,
        0.0,
        0.0,
        -1.0,
        2.220446049250313e-16,
        0.0,
        0.0,
        0.0,
        0.0,
        1.0
      ],
      "name": "GLTF_SceneRootNode"
    },
    {
      "children": [
        4
      ],
      "name": "Car body_0"
    },
    {
      "mesh": 0,
      "name": "Object_4"
    },
    {
      "children": [
        6
      ],
      "name": "Wheels Front_1",
      "translation": [
        0.0,
        0.3078269362449646,
        -1.3902840614318848
      ]
    },
    {
      "mesh": 1,
      "name": "Object_6"
    },
    {
      "children": [
        8
      ],
      "name": "Wheels Rear_2",
      "translation": [
        0.0,
        0.3078269362449646,
        1.2576582431793213
      ]
    },
    {
      "mesh": 2,
      "name": "Object_8"
    },
    {
      "children": [
        10
      ],
      "name": "Car interior_3"
    },
    {
      "mesh": 3,
      "name": "Object_10"
    }
  ],
  "samplers": [
    {
      "magFilter": 9728,
      "minFilter": 9986,
      "wrapS": 10497,
      "wrapT": 10497
    }
  ],
  "scene": 0,
  "scenes": [
    {
      "name": "Sketchfab_Scene",
      "nodes": [
        0
      ]
    }
  ],
  "textures": [
    {
      "sampler": 0,
      "source": 0
    },
    {
      "sampler": 0,
      "source": 1
    },
    {
      "sampler": 0,
      "source": 2
    }
  ]
}
