{
	"asset":{
		"generator":"Khronos glTF Blender I/O v4.3.47",
		"version":"2.0"
	},
	"scene":0,
	"scenes":[
		{
			"name":"Scene",
			"nodes":[
				0,
				1
			]
		}
	],
	"nodes":[
		{
			"mesh":0,
			"name":"Sketch.001",
			"rotation":[
				0.5,
				0.5,
				-0.5,
				0.5
			],
			"scale":[
				0.9656155109405518,
				0.7773769497871399,
				0.9656155109405518
			]
		},
		{
			"mesh":1,
			"name":"Sketch.002",
			"rotation":[
				0.5,
				0.5,
				-0.5,
				0.5
			],
			"scale":[
				0.9003841280937195,
				0.5610947012901306,
				0.9338254928588867
			],
			"translation":[
				0.22037501633167267,
				0,
				0
			]
		}
	],
	"meshes":[
		{
			"name":"Sketch.003",
			"primitives":[
				{
					"attributes":{
						"POSITION":0,
						"NORMAL":1,
						"TEXCOORD_0":2
					},
					"indices":3
				}
			]
		},
		{
			"name":"Sketch.004",
			"primitives":[
				{
					"attributes":{
						"POSITION":4,
						"NORMAL":5,
						"TEXCOORD_0":6
					},
					"indices":3
				}
			]
		}
	],
	"accessors":[
		{
			"bufferView":0,
			"componentType":5126,
			"count":252,
			"max":[
				3.512941360473633,
				0.639070987701416,
				6.346317291259766
			],
			"min":[
				-3.424832820892334,
				-0.6390721797943115,
				-7.190929412841797
			],
			"type":"VEC3"
		},
		{
			"bufferView":1,
			"componentType":5126,
			"count":252,
			"type":"VEC3"
		},
		{
			"bufferView":2,
			"componentType":5126,
			"count":252,
			"type":"VEC2"
		},
		{
			"bufferView":3,
			"componentType":5123,
			"count":492,
			"type":"SCALAR"
		},
		{
			"bufferView":4,
			"componentType":5126,
			"count":252,
			"max":[
				3.512941360473633,
				0.639070987701416,
				6.346317291259766
			],
			"min":[
				-3.424832820892334,
				-0.6390721797943115,
				-7.190929412841797
			],
			"type":"VEC3"
		},
		{
			"bufferView":5,
			"componentType":5126,
			"count":252,
			"type":"VEC3"
		},
		{
			"bufferView":6,
			"componentType":5126,
			"count":252,
			"type":"VEC2"
		}
	],
	"bufferViews":[
		{
			"buffer":0,
			"byteLength":3024,
			"byteOffset":0,
			"target":34962
		},
		{
			"buffer":0,
			"byteLength":3024,
			"byteOffset":3024,
			"target":34962
		},
		{
			"buffer":0,
			"byteLength":2016,
			"byteOffset":6048,
			"target":34962
		},
		{
			"buffer":0,
			"byteLength":984,
			"byteOffset":8064,
			"target":34963
		},
		{
			"buffer":0,
			"byteLength":3024,
			"byteOffset":9048,
			"target":34962
		},
		{
			"buffer":0,
			"byteLength":3024,
			"byteOffset":12072,
			"target":34962
		},
		{
			"buffer":0,
			"byteLength":2016,
			"byteOffset":15096,
			"target":34962
		}
	],
	"buffers":[
		{
			"byteLength":17112,
			"uri":"CryptoTrezor.bin"
		}
	]
}
