{
	"asset":{
		"generator":"Khronos glTF Blender I/O v4.3.47",
		"version":"2.0"
	},
	"scene":0,
	"scenes":[
		{
			"name":"Scene",
			"nodes":[
				0,
				1,
				2,
				3
			]
		}
	],
	"nodes":[
		{
			"mesh":0,
			"name":"Cube.006",
			"scale":[
				7.810396671295166,
				7.810396671295166,
				7.810396671295166
			]
		},
		{
			"mesh":1,
			"name":"Cube.007",
			"rotation":[
				0.051123373210430145,
				0.03191012516617775,
				0.14680622518062592,
				0.9873277544975281
			],
			"scale":[
				1.6621092557907104,
				1.6621092557907104,
				1.6621092557907104
			],
			"translation":[
				-5.1907548904418945,
				-3.5998544692993164,
				-1.1082205772399902
			]
		},
		{
			"mesh":2,
			"name":"Cube.008",
			"rotation":[
				-0.040975235402584076,
				0.03884041681885719,
				0.14166072010993958,
				0.9883039593696594
			],
			"scale":[
				1.662109136581421,
				1.6621092557907104,
				1.6621092557907104
			],
			"translation":[
				-2.165027379989624,
				2.3853373527526855,
				-4.438717842102051
			]
		},
		{
			"mesh":3,
			"name":"Cube.009",
			"rotation":[
				0.021752281114459038,
				0.03415355086326599,
				0.1452993005514145,
				0.988558828830719
			],
			"scale":[
				1.662109136581421,
				1.6621092557907104,
				1.6621092557907104
			],
			"translation":[
				-9.231833457946777,
				-0.4060085117816925,
				2.917083501815796
			]
		}
	],
	"meshes":[
		{
			"name":"Cube.019",
			"primitives":[
				{
					"attributes":{
						"POSITION":0,
						"NORMAL":1,
						"TEXCOORD_0":2
					},
					"indices":3
				}
			]
		},
		{
			"name":"Cube.020",
			"primitives":[
				{
					"attributes":{
						"POSITION":4,
						"NORMAL":5,
						"TEXCOORD_0":6
					},
					"indices":7
				}
			]
		},
		{
			"name":"Cube.021",
			"primitives":[
				{
					"attributes":{
						"POSITION":8,
						"NORMAL":9,
						"TEXCOORD_0":10
					},
					"indices":7
				}
			]
		},
		{
			"name":"Cube.022",
			"primitives":[
				{
					"attributes":{
						"POSITION":11,
						"NORMAL":12,
						"TEXCOORD_0":13
					},
					"indices":7
				}
			]
		}
	],
	"accessors":[
		{
			"bufferView":0,
			"componentType":5126,
			"count":192,
			"max":[
				2.9207563400268555,
				1.1805543899536133,
				1.1805543899536133
			],
			"min":[
				-2.9207563400268555,
				-1.1805543899536133,
				-1.1805543899536133
			],
			"type":"VEC3"
		},
		{
			"bufferView":1,
			"componentType":5126,
			"count":192,
			"type":"VEC3"
		},
		{
			"bufferView":2,
			"componentType":5126,
			"count":192,
			"type":"VEC2"
		},
		{
			"bufferView":3,
			"componentType":5123,
			"count":288,
			"type":"SCALAR"
		},
		{
			"bufferView":4,
			"componentType":5126,
			"count":216,
			"max":[
				1.2589411735534668,
				0.7252205014228821,
				0.35318443179130554
			],
			"min":[
				-2.4045374393463135,
				-0.7379605174064636,
				-0.3531844913959503
			],
			"type":"VEC3"
		},
		{
			"bufferView":5,
			"componentType":5126,
			"count":216,
			"type":"VEC3"
		},
		{
			"bufferView":6,
			"componentType":5126,
			"count":216,
			"type":"VEC2"
		},
		{
			"bufferView":7,
			"componentType":5123,
			"count":420,
			"type":"SCALAR"
		},
		{
			"bufferView":8,
			"componentType":5126,
			"count":216,
			"max":[
				1.2589411735534668,
				0.7252205014228821,
				0.35318443179130554
			],
			"min":[
				-2.4045374393463135,
				-0.7379605174064636,
				-0.3531844913959503
			],
			"type":"VEC3"
		},
		{
			"bufferView":9,
			"componentType":5126,
			"count":216,
			"type":"VEC3"
		},
		{
			"bufferView":10,
			"componentType":5126,
			"count":216,
			"type":"VEC2"
		},
		{
			"bufferView":11,
			"componentType":5126,
			"count":216,
			"max":[
				1.2589411735534668,
				0.7252205014228821,
				0.35318443179130554
			],
			"min":[
				-2.4045374393463135,
				-0.7379605174064636,
				-0.3531844913959503
			],
			"type":"VEC3"
		},
		{
			"bufferView":12,
			"componentType":5126,
			"count":216,
			"type":"VEC3"
		},
		{
			"bufferView":13,
			"componentType":5126,
			"count":216,
			"type":"VEC2"
		}
	],
	"bufferViews":[
		{
			"buffer":0,
			"byteLength":2304,
			"byteOffset":0,
			"target":34962
		},
		{
			"buffer":0,
			"byteLength":2304,
			"byteOffset":2304,
			"target":34962
		},
		{
			"buffer":0,
			"byteLength":1536,
			"byteOffset":4608,
			"target":34962
		},
		{
			"buffer":0,
			"byteLength":576,
			"byteOffset":6144,
			"target":34963
		},
		{
			"buffer":0,
			"byteLength":2592,
			"byteOffset":6720,
			"target":34962
		},
		{
			"buffer":0,
			"byteLength":2592,
			"byteOffset":9312,
			"target":34962
		},
		{
			"buffer":0,
			"byteLength":1728,
			"byteOffset":11904,
			"target":34962
		},
		{
			"buffer":0,
			"byteLength":840,
			"byteOffset":13632,
			"target":34963
		},
		{
			"buffer":0,
			"byteLength":2592,
			"byteOffset":14472,
			"target":34962
		},
		{
			"buffer":0,
			"byteLength":2592,
			"byteOffset":17064,
			"target":34962
		},
		{
			"buffer":0,
			"byteLength":1728,
			"byteOffset":19656,
			"target":34962
		},
		{
			"buffer":0,
			"byteLength":2592,
			"byteOffset":21384,
			"target":34962
		},
		{
			"buffer":0,
			"byteLength":2592,
			"byteOffset":23976,
			"target":34962
		},
		{
			"buffer":0,
			"byteLength":1728,
			"byteOffset":26568,
			"target":34962
		}
	],
	"buffers":[
		{
			"byteLength":28296,
			"uri":"Aquarium.bin"
		}
	]
}
