{
	"asset":{
		"generator":"Khronos glTF Blender I/O v4.3.47",
		"version":"2.0"
	},
	"scene":0,
	"scenes":[
		{
			"name":"Scene",
			"nodes":[
				0,
				1,
				2
			]
		}
	],
	"nodes":[
		{
			"mesh":0,
			"name":"Cylinder",
			"rotation":[
				-0.5,
				-0.5,
				-0.5,
				0.5000000596046448
			],
			"scale":[
				4.006392955780029,
				0.18928276002407074,
				4.006392955780029
			]
		},
		{
			"mesh":1,
			"name":"Cylinder.001",
			"rotation":[
				0,
				0,
				-0.7071068286895752,
				0.7071068286895752
			],
			"scale":[
				3.816568613052368,
				0.08204604685306549,
				3.816568613052368
			]
		},
		{
			"mesh":2,
			"name":"Torus",
			"rotation":[
				0,
				0,
				-0.7071068286895752,
				0.7071068286895752
			]
		}
	],
	"meshes":[
		{
			"name":"Cylinder.001",
			"primitives":[
				{
					"attributes":{
						"POSITION":0,
						"NORMAL":1,
						"TEXCOORD_0":2
					},
					"indices":3
				}
			]
		},
		{
			"name":"Cylinder.003",
			"primitives":[
				{
					"attributes":{
						"POSITION":4,
						"NORMAL":5,
						"TEXCOORD_0":6
					},
					"indices":3
				}
			]
		},
		{
			"name":"Torus",
			"primitives":[
				{
					"attributes":{
						"POSITION":7,
						"NORMAL":8,
						"TEXCOORD_0":9
					},
					"indices":10
				}
			]
		}
	],
	"accessors":[
		{
			"bufferView":0,
			"componentType":5126,
			"count":216,
			"max":[
				1.021131992340088,
				1,
				1.021131992340088
			],
			"min":[
				-1.021131992340088,
				-1,
				-1.021131992340088
			],
			"type":"VEC3"
		},
		{
			"bufferView":1,
			"componentType":5126,
			"count":216,
			"type":"VEC3"
		},
		{
			"bufferView":2,
			"componentType":5126,
			"count":216,
			"type":"VEC2"
		},
		{
			"bufferView":3,
			"componentType":5123,
			"count":408,
			"type":"SCALAR"
		},
		{
			"bufferView":4,
			"componentType":5126,
			"count":216,
			"max":[
				1.021131992340088,
				0.9999999403953552,
				1.021131992340088
			],
			"min":[
				-1.021131992340088,
				-1,
				-1.021131992340088
			],
			"type":"VEC3"
		},
		{
			"bufferView":5,
			"componentType":5126,
			"count":216,
			"type":"VEC3"
		},
		{
			"bufferView":6,
			"componentType":5126,
			"count":216,
			"type":"VEC2"
		},
		{
			"bufferView":7,
			"componentType":5126,
			"count":1200,
			"max":[
				7.190000057220459,
				0.39837172627449036,
				7.190000057220459
			],
			"min":[
				-7.190000057220459,
				-0.39837172627449036,
				-7.190000057220459
			],
			"type":"VEC3"
		},
		{
			"bufferView":8,
			"componentType":5126,
			"count":1200,
			"type":"VEC3"
		},
		{
			"bufferView":9,
			"componentType":5126,
			"count":1200,
			"type":"VEC2"
		},
		{
			"bufferView":10,
			"componentType":5123,
			"count":1800,
			"type":"SCALAR"
		}
	],
	"bufferViews":[
		{
			"buffer":0,
			"byteLength":2592,
			"byteOffset":0,
			"target":34962
		},
		{
			"buffer":0,
			"byteLength":2592,
			"byteOffset":2592,
			"target":34962
		},
		{
			"buffer":0,
			"byteLength":1728,
			"byteOffset":5184,
			"target":34962
		},
		{
			"buffer":0,
			"byteLength":816,
			"byteOffset":6912,
			"target":34963
		},
		{
			"buffer":0,
			"byteLength":2592,
			"byteOffset":7728,
			"target":34962
		},
		{
			"buffer":0,
			"byteLength":2592,
			"byteOffset":10320,
			"target":34962
		},
		{
			"buffer":0,
			"byteLength":1728,
			"byteOffset":12912,
			"target":34962
		},
		{
			"buffer":0,
			"byteLength":14400,
			"byteOffset":14640,
			"target":34962
		},
		{
			"buffer":0,
			"byteLength":14400,
			"byteOffset":29040,
			"target":34962
		},
		{
			"buffer":0,
			"byteLength":9600,
			"byteOffset":43440,
			"target":34962
		},
		{
			"buffer":0,
			"byteLength":3600,
			"byteOffset":53040,
			"target":34963
		}
	],
	"buffers":[
		{
			"byteLength":56640,
			"uri":"BMW.bin"
		}
	]
}
