{
	"asset":{
		"generator":"Khronos glTF Blender I/O v4.3.47",
		"version":"2.0"
	},
	"scene":0,
	"scenes":[
		{
			"name":"Scene",
			"nodes":[
				0,
				1,
				2
			]
		}
	],
	"nodes":[
		{
			"mesh":0,
			"name":"laptopBottom",
			"rotation":[
				0,
				1,
				0,
				0
			],
			"scale":[
				-3.087100028991699,
				-0.06283996999263763,
				-2.2152204513549805
			]
		},
		{
			"mesh":1,
			"name":"laptopTop",
			"rotation":[
				0,
				0.9999964237213135,
				0.0026767700910568237,
				0
			],
			"scale":[
				-3.087100028991699,
				-0.06283996999263763,
				-2.2152204513549805
			],
			"translation":[
				0,
				0.08264229446649551,
				-2.226828098297119
			]
		},
		{
			"mesh":2,
			"name":"laptopTop.001",
			"rotation":[
				0,
				0.9999964237213135,
				0.00267676985822618,
				0
			],
			"scale":[
				-3.050917863845825,
				-0.06210346519947052,
				-2.1892576217651367
			],
			"translation":[
				0,
				0.07299147546291351,
				-2.203612804412842
			]
		}
	],
	"animations":[
		{
			"channels":[
				{
					"sampler":0,
					"target":{
						"node":1,
						"path":"translation"
					}
				},
				{
					"sampler":1,
					"target":{
						"node":1,
						"path":"rotation"
					}
				}
			],
			"name":"laptopTopAction",
			"samplers":[
				{
					"input":11,
					"interpolation":"LINEAR",
					"output":12
				},
				{
					"input":11,
					"interpolation":"LINEAR",
					"output":13
				}
			]
		},
		{
			"channels":[
				{
					"sampler":0,
					"target":{
						"node":2,
						"path":"translation"
					}
				},
				{
					"sampler":1,
					"target":{
						"node":2,
						"path":"rotation"
					}
				}
			],
			"name":"laptopTop.001Action",
			"samplers":[
				{
					"input":11,
					"interpolation":"LINEAR",
					"output":14
				},
				{
					"input":11,
					"interpolation":"LINEAR",
					"output":15
				}
			]
		}
	],
	"meshes":[
		{
			"name":"Cube.023",
			"primitives":[
				{
					"attributes":{
						"POSITION":0,
						"NORMAL":1,
						"TEXCOORD_0":2
					},
					"indices":3
				}
			]
		},
		{
			"name":"Cube.024",
			"primitives":[
				{
					"attributes":{
						"POSITION":4,
						"NORMAL":5,
						"TEXCOORD_0":6
					},
					"indices":7
				}
			]
		},
		{
			"name":"Cube.025",
			"primitives":[
				{
					"attributes":{
						"POSITION":8,
						"NORMAL":9,
						"TEXCOORD_0":10
					},
					"indices":7
				}
			]
		}
	],
	"accessors":[
		{
			"bufferView":0,
			"componentType":5126,
			"count":1848,
			"max":[
				1,
				1,
				1
			],
			"min":[
				-1,
				-1,
				-1
			],
			"type":"VEC3"
		},
		{
			"bufferView":1,
			"componentType":5126,
			"count":1848,
			"type":"VEC3"
		},
		{
			"bufferView":2,
			"componentType":5126,
			"count":1848,
			"type":"VEC2"
		},
		{
			"bufferView":3,
			"componentType":5123,
			"count":2820,
			"type":"SCALAR"
		},
		{
			"bufferView":4,
			"componentType":5126,
			"count":1176,
			"max":[
				1,
				-1.1920928955078125e-07,
				2
			],
			"min":[
				-1,
				-2,
				0
			],
			"type":"VEC3"
		},
		{
			"bufferView":5,
			"componentType":5126,
			"count":1176,
			"type":"VEC3"
		},
		{
			"bufferView":6,
			"componentType":5126,
			"count":1176,
			"type":"VEC2"
		},
		{
			"bufferView":7,
			"componentType":5123,
			"count":1764,
			"type":"SCALAR"
		},
		{
			"bufferView":8,
			"componentType":5126,
			"count":1176,
			"max":[
				1,
				-1.1920928955078125e-07,
				2
			],
			"min":[
				-1,
				-2,
				0
			],
			"type":"VEC3"
		},
		{
			"bufferView":9,
			"componentType":5126,
			"count":1176,
			"type":"VEC3"
		},
		{
			"bufferView":10,
			"componentType":5126,
			"count":1176,
			"type":"VEC2"
		},
		{
			"bufferView":11,
			"componentType":5126,
			"count":91,
			"max":[
				3.75
			],
			"min":[
				0
			],
			"type":"SCALAR"
		},
		{
			"bufferView":12,
			"componentType":5126,
			"count":91,
			"type":"VEC3"
		},
		{
			"bufferView":13,
			"componentType":5126,
			"count":91,
			"type":"VEC4"
		},
		{
			"bufferView":14,
			"componentType":5126,
			"count":91,
			"type":"VEC3"
		},
		{
			"bufferView":15,
			"componentType":5126,
			"count":91,
			"type":"VEC4"
		}
	],
	"bufferViews":[
		{
			"buffer":0,
			"byteLength":22176,
			"byteOffset":0,
			"target":34962
		},
		{
			"buffer":0,
			"byteLength":22176,
			"byteOffset":22176,
			"target":34962
		},
		{
			"buffer":0,
			"byteLength":14784,
			"byteOffset":44352,
			"target":34962
		},
		{
			"buffer":0,
			"byteLength":5640,
			"byteOffset":59136,
			"target":34963
		},
		{
			"buffer":0,
			"byteLength":14112,
			"byteOffset":64776,
			"target":34962
		},
		{
			"buffer":0,
			"byteLength":14112,
			"byteOffset":78888,
			"target":34962
		},
		{
			"buffer":0,
			"byteLength":9408,
			"byteOffset":93000,
			"target":34962
		},
		{
			"buffer":0,
			"byteLength":3528,
			"byteOffset":102408,
			"target":34963
		},
		{
			"buffer":0,
			"byteLength":14112,
			"byteOffset":105936,
			"target":34962
		},
		{
			"buffer":0,
			"byteLength":14112,
			"byteOffset":120048,
			"target":34962
		},
		{
			"buffer":0,
			"byteLength":9408,
			"byteOffset":134160,
			"target":34962
		},
		{
			"buffer":0,
			"byteLength":364,
			"byteOffset":143568
		},
		{
			"buffer":0,
			"byteLength":1092,
			"byteOffset":143932
		},
		{
			"buffer":0,
			"byteLength":1456,
			"byteOffset":145024
		},
		{
			"buffer":0,
			"byteLength":1092,
			"byteOffset":146480
		},
		{
			"buffer":0,
			"byteLength":1456,
			"byteOffset":147572
		}
	],
	"buffers":[
		{
			"byteLength":149028,
			"uri":"Code.bin"
		}
	]
}
