{
	"asset":{
		"generator":"Khronos glTF Blender I/O v4.3.47",
		"version":"2.0"
	},
	"scene":0,
	"scenes":[
		{
			"name":"Scene",
			"nodes":[
				0,
				1,
				2,
				3,
				4,
				5
			]
		}
	],
	"nodes":[
		{
			"mesh":0,
			"name":"top",
			"scale":[
				44.59640121459961,
				0.5364376306533813,
				16.204978942871094
			],
			"translation":[
				3.256152629852295,
				42.272544860839844,
				0
			]
		},
		{
			"mesh":1,
			"name":"Props.001",
			"rotation":[
				0,
				0.034899476915597916,
				0,
				0.9993908405303955
			],
			"scale":[
				14.916439056396484,
				14.916439056396484,
				14.916439056396484
			],
			"translation":[
				95,
				40,
				73.21489715576172
			]
		},
		{
			"name":"root",
			"scale":[
				43.13542556762695,
				43.13542556762695,
				43.13542556762695
			],
			"translation":[
				3.256152629852295,
				42.272544860839844,
				0
			]
		},
		{
			"mesh":2,
			"name":"Props.002",
			"rotation":[
				0,
				-0.9999619126319885,
				0,
				0.008726561442017555
			],
			"scale":[
				14.916439056396484,
				14.916439056396484,
				14.916439056396484
			],
			"translation":[
				-90,
				40,
				-74.00769805908203
			]
		},
		{
			"mesh":3,
			"name":"Props.003",
			"rotation":[
				0,
				-0.2840152978897095,
				0,
				0.9588197469711304
			],
			"scale":[
				14.916399955749512,
				14.916409492492676,
				14.916439056396484
			],
			"translation":[
				95,
				37.935890197753906,
				-78.81739807128906
			]
		},
		{
			"mesh":4,
			"name":"Props.004",
			"rotation":[
				0,
				0.258819043636322,
				0,
				0.965925931930542
			],
			"scale":[
				14.916439056396484,
				14.916439056396484,
				14.916439056396484
			],
			"translation":[
				-90,
				38.20240020751953,
				73.67669677734375
			]
		}
	],
	"materials":[
		{
			"doubleSided":true,
			"name":"frame.001",
			"pbrMetallicRoughness":{
				"baseColorFactor":[
					0,
					0,
					0,
					1
				],
				"metallicFactor":0,
				"roughnessFactor":0.5
			}
		},
		{
			"doubleSided":true,
			"name":"details.001",
			"pbrMetallicRoughness":{
				"baseColorFactor":[
					0.8000000715255737,
					0.239930659532547,
					0,
					1
				],
				"metallicFactor":0,
				"roughnessFactor":0.5
			}
		},
		{
			"doubleSided":true,
			"name":"Cables.001",
			"pbrMetallicRoughness":{
				"baseColorFactor":[
					0.8000000715255737,
					0.00937916524708271,
					0,
					1
				],
				"metallicFactor":0,
				"roughnessFactor":0.5
			}
		},
		{
			"doubleSided":true,
			"name":"cam.001",
			"pbrMetallicRoughness":{
				"baseColorFactor":[
					0.010169255547225475,
					0,
					0.8000000715255737,
					1
				],
				"metallicFactor":0,
				"roughnessFactor":0.5
			}
		},
		{
			"doubleSided":true,
			"name":"Material.002",
			"pbrMetallicRoughness":{
				"baseColorFactor":[
					0.8000000715255737,
					0,
					0.012732804752886295,
					1
				],
				"metallicFactor":0,
				"roughnessFactor":0.5
			}
		},
		{
			"doubleSided":true,
			"name":"Cables.002",
			"pbrMetallicRoughness":{
				"baseColorFactor":[
					0.8000000715255737,
					0.00937916524708271,
					0,
					1
				],
				"metallicFactor":0,
				"roughnessFactor":0.5
			}
		},
		{
			"doubleSided":true,
			"name":"Cables.003",
			"pbrMetallicRoughness":{
				"baseColorFactor":[
					0.8000000715255737,
					0.00937916524708271,
					0,
					1
				],
				"metallicFactor":0,
				"roughnessFactor":0.5
			}
		},
		{
			"doubleSided":true,
			"name":"Cables.004",
			"pbrMetallicRoughness":{
				"baseColorFactor":[
					0.8000000715255737,
					0.00937916524708271,
					0,
					1
				],
				"metallicFactor":0,
				"roughnessFactor":0.5
			}
		}
	],
	"meshes":[
		{
			"name":"Cube.014",
			"primitives":[
				{
					"attributes":{
						"POSITION":0,
						"NORMAL":1,
						"TEXCOORD_0":2,
						"COLOR_0":3,
						"COLOR_1":4
					},
					"indices":5,
					"material":0
				},
				{
					"attributes":{
						"POSITION":6,
						"NORMAL":7,
						"TEXCOORD_0":8,
						"COLOR_0":9,
						"COLOR_1":10
					},
					"indices":11,
					"material":1
				},
				{
					"attributes":{
						"POSITION":12,
						"NORMAL":13,
						"TEXCOORD_0":14,
						"COLOR_0":15,
						"COLOR_1":16
					},
					"indices":17,
					"material":2
				},
				{
					"attributes":{
						"POSITION":18,
						"NORMAL":19,
						"TEXCOORD_0":20,
						"COLOR_0":21,
						"COLOR_1":22
					},
					"indices":23,
					"material":3
				},
				{
					"attributes":{
						"POSITION":24,
						"NORMAL":25,
						"TEXCOORD_0":26,
						"COLOR_0":27,
						"COLOR_1":28
					},
					"indices":29,
					"material":4
				}
			]
		},
		{
			"name":"Cylinder.007",
			"primitives":[
				{
					"attributes":{
						"POSITION":30,
						"NORMAL":31,
						"TEXCOORD_0":32
					},
					"indices":33,
					"material":2
				}
			]
		},
		{
			"name":"Cylinder.008",
			"primitives":[
				{
					"attributes":{
						"POSITION":34,
						"NORMAL":35,
						"TEXCOORD_0":36
					},
					"indices":33,
					"material":5
				}
			]
		},
		{
			"name":"Cylinder.009",
			"primitives":[
				{
					"attributes":{
						"POSITION":37,
						"NORMAL":38,
						"TEXCOORD_0":39
					},
					"indices":33,
					"material":6
				}
			]
		},
		{
			"name":"Cylinder.010",
			"primitives":[
				{
					"attributes":{
						"POSITION":40,
						"NORMAL":41,
						"TEXCOORD_0":42
					},
					"indices":33,
					"material":7
				}
			]
		}
	],
	"accessors":[
		{
			"bufferView":0,
			"componentType":5126,
			"count":1716,
			"max":[
				2.339752197265625,
				1,
				5.479554653167725
			],
			"min":[
				-2.413180351257324,
				-40.499359130859375,
				-5.479554653167725
			],
			"type":"VEC3"
		},
		{
			"bufferView":1,
			"componentType":5126,
			"count":1716,
			"type":"VEC3"
		},
		{
			"bufferView":2,
			"componentType":5126,
			"count":1716,
			"type":"VEC2"
		},
		{
			"bufferView":3,
			"componentType":5121,
			"count":1716,
			"normalized":true,
			"type":"VEC4"
		},
		{
			"bufferView":4,
			"componentType":5123,
			"count":1716,
			"normalized":true,
			"type":"VEC4"
		},
		{
			"bufferView":5,
			"componentType":5123,
			"count":4008,
			"type":"SCALAR"
		},
		{
			"bufferView":6,
			"componentType":5126,
			"count":1040,
			"max":[
				0.9540036916732788,
				-5.821659088134766,
				0.6655420660972595
			],
			"min":[
				-0.6682240962982178,
				-85.98173522949219,
				-0.6655420660972595
			],
			"type":"VEC3"
		},
		{
			"bufferView":7,
			"componentType":5126,
			"count":1040,
			"type":"VEC3"
		},
		{
			"bufferView":8,
			"componentType":5126,
			"count":1040,
			"type":"VEC2"
		},
		{
			"bufferView":9,
			"componentType":5121,
			"count":1040,
			"normalized":true,
			"type":"VEC4"
		},
		{
			"bufferView":10,
			"componentType":5123,
			"count":1040,
			"normalized":true,
			"type":"VEC4"
		},
		{
			"bufferView":11,
			"componentType":5123,
			"count":2070,
			"type":"SCALAR"
		},
		{
			"bufferView":12,
			"componentType":5126,
			"count":2496,
			"max":[
				0.9177777171134949,
				5.969688415527344,
				0.8194279670715332
			],
			"min":[
				-0.9311667680740356,
				-47.08985900878906,
				-0.8194279670715332
			],
			"type":"VEC3"
		},
		{
			"bufferView":13,
			"componentType":5126,
			"count":2496,
			"type":"VEC3"
		},
		{
			"bufferView":14,
			"componentType":5126,
			"count":2496,
			"type":"VEC2"
		},
		{
			"bufferView":15,
			"componentType":5121,
			"count":2496,
			"normalized":true,
			"type":"VEC4"
		},
		{
			"bufferView":16,
			"componentType":5123,
			"count":2496,
			"normalized":true,
			"type":"VEC4"
		},
		{
			"bufferView":17,
			"componentType":5123,
			"count":6096,
			"type":"SCALAR"
		},
		{
			"bufferView":18,
			"componentType":5126,
			"count":1946,
			"max":[
				0.9483904838562012,
				-1.1488456726074219,
				1.0111290216445923
			],
			"min":[
				0.43797624111175537,
				-40.31644821166992,
				-1.0111291408538818
			],
			"type":"VEC3"
		},
		{
			"bufferView":19,
			"componentType":5126,
			"count":1946,
			"type":"VEC3"
		},
		{
			"bufferView":20,
			"componentType":5126,
			"count":1946,
			"type":"VEC2"
		},
		{
			"bufferView":21,
			"componentType":5121,
			"count":1946,
			"normalized":true,
			"type":"VEC4"
		},
		{
			"bufferView":22,
			"componentType":5123,
			"count":1946,
			"normalized":true,
			"type":"VEC4"
		},
		{
			"bufferView":23,
			"componentType":5123,
			"count":3396,
			"type":"SCALAR"
		},
		{
			"bufferView":24,
			"componentType":5126,
			"count":1776,
			"max":[
				2.2297723293304443,
				-26.64365005493164,
				5.035402297973633
			],
			"min":[
				-2.3032004833221436,
				-28.43810272216797,
				-5.035402297973633
			],
			"type":"VEC3"
		},
		{
			"bufferView":25,
			"componentType":5126,
			"count":1776,
			"type":"VEC3"
		},
		{
			"bufferView":26,
			"componentType":5126,
			"count":1776,
			"type":"VEC2"
		},
		{
			"bufferView":27,
			"componentType":5121,
			"count":1776,
			"normalized":true,
			"type":"VEC4"
		},
		{
			"bufferView":28,
			"componentType":5123,
			"count":1776,
			"normalized":true,
			"type":"VEC4"
		},
		{
			"bufferView":29,
			"componentType":5123,
			"count":4464,
			"type":"SCALAR"
		},
		{
			"bufferView":30,
			"componentType":5126,
			"count":1766,
			"max":[
				4.933340549468994,
				0.772026538848877,
				4.434708595275879
			],
			"min":[
				-3.9479899406433105,
				-0.6969864368438721,
				-3.535207748413086
			],
			"type":"VEC3"
		},
		{
			"bufferView":31,
			"componentType":5126,
			"count":1766,
			"type":"VEC3"
		},
		{
			"bufferView":32,
			"componentType":5126,
			"count":1766,
			"type":"VEC2"
		},
		{
			"bufferView":33,
			"componentType":5123,
			"count":3192,
			"type":"SCALAR"
		},
		{
			"bufferView":34,
			"componentType":5126,
			"count":1766,
			"max":[
				4.933340549468994,
				0.772026538848877,
				4.434708595275879
			],
			"min":[
				-3.9479899406433105,
				-0.6969864368438721,
				-3.535207748413086
			],
			"type":"VEC3"
		},
		{
			"bufferView":35,
			"componentType":5126,
			"count":1766,
			"type":"VEC3"
		},
		{
			"bufferView":36,
			"componentType":5126,
			"count":1766,
			"type":"VEC2"
		},
		{
			"bufferView":37,
			"componentType":5126,
			"count":1766,
			"max":[
				4.933340549468994,
				0.772026538848877,
				4.434708595275879
			],
			"min":[
				-3.9479899406433105,
				-0.6969864368438721,
				-3.535207748413086
			],
			"type":"VEC3"
		},
		{
			"bufferView":38,
			"componentType":5126,
			"count":1766,
			"type":"VEC3"
		},
		{
			"bufferView":39,
			"componentType":5126,
			"count":1766,
			"type":"VEC2"
		},
		{
			"bufferView":40,
			"componentType":5126,
			"count":1766,
			"max":[
				4.933340549468994,
				0.772026538848877,
				4.434708595275879
			],
			"min":[
				-3.9479899406433105,
				-0.6969864368438721,
				-3.535207748413086
			],
			"type":"VEC3"
		},
		{
			"bufferView":41,
			"componentType":5126,
			"count":1766,
			"type":"VEC3"
		},
		{
			"bufferView":42,
			"componentType":5126,
			"count":1766,
			"type":"VEC2"
		}
	],
	"bufferViews":[
		{
			"buffer":0,
			"byteLength":20592,
			"byteOffset":0,
			"target":34962
		},
		{
			"buffer":0,
			"byteLength":20592,
			"byteOffset":20592,
			"target":34962
		},
		{
			"buffer":0,
			"byteLength":13728,
			"byteOffset":41184,
			"target":34962
		},
		{
			"buffer":0,
			"byteLength":6864,
			"byteOffset":54912,
			"target":34962
		},
		{
			"buffer":0,
			"byteLength":13728,
			"byteOffset":61776,
			"target":34962
		},
		{
			"buffer":0,
			"byteLength":8016,
			"byteOffset":75504,
			"target":34963
		},
		{
			"buffer":0,
			"byteLength":12480,
			"byteOffset":83520,
			"target":34962
		},
		{
			"buffer":0,
			"byteLength":12480,
			"byteOffset":96000,
			"target":34962
		},
		{
			"buffer":0,
			"byteLength":8320,
			"byteOffset":108480,
			"target":34962
		},
		{
			"buffer":0,
			"byteLength":4160,
			"byteOffset":116800,
			"target":34962
		},
		{
			"buffer":0,
			"byteLength":8320,
			"byteOffset":120960,
			"target":34962
		},
		{
			"buffer":0,
			"byteLength":4140,
			"byteOffset":129280,
			"target":34963
		},
		{
			"buffer":0,
			"byteLength":29952,
			"byteOffset":133420,
			"target":34962
		},
		{
			"buffer":0,
			"byteLength":29952,
			"byteOffset":163372,
			"target":34962
		},
		{
			"buffer":0,
			"byteLength":19968,
			"byteOffset":193324,
			"target":34962
		},
		{
			"buffer":0,
			"byteLength":9984,
			"byteOffset":213292,
			"target":34962
		},
		{
			"buffer":0,
			"byteLength":19968,
			"byteOffset":223276,
			"target":34962
		},
		{
			"buffer":0,
			"byteLength":12192,
			"byteOffset":243244,
			"target":34963
		},
		{
			"buffer":0,
			"byteLength":23352,
			"byteOffset":255436,
			"target":34962
		},
		{
			"buffer":0,
			"byteLength":23352,
			"byteOffset":278788,
			"target":34962
		},
		{
			"buffer":0,
			"byteLength":15568,
			"byteOffset":302140,
			"target":34962
		},
		{
			"buffer":0,
			"byteLength":7784,
			"byteOffset":317708,
			"target":34962
		},
		{
			"buffer":0,
			"byteLength":15568,
			"byteOffset":325492,
			"target":34962
		},
		{
			"buffer":0,
			"byteLength":6792,
			"byteOffset":341060,
			"target":34963
		},
		{
			"buffer":0,
			"byteLength":21312,
			"byteOffset":347852,
			"target":34962
		},
		{
			"buffer":0,
			"byteLength":21312,
			"byteOffset":369164,
			"target":34962
		},
		{
			"buffer":0,
			"byteLength":14208,
			"byteOffset":390476,
			"target":34962
		},
		{
			"buffer":0,
			"byteLength":7104,
			"byteOffset":404684,
			"target":34962
		},
		{
			"buffer":0,
			"byteLength":14208,
			"byteOffset":411788,
			"target":34962
		},
		{
			"buffer":0,
			"byteLength":8928,
			"byteOffset":425996,
			"target":34963
		},
		{
			"buffer":0,
			"byteLength":21192,
			"byteOffset":434924,
			"target":34962
		},
		{
			"buffer":0,
			"byteLength":21192,
			"byteOffset":456116,
			"target":34962
		},
		{
			"buffer":0,
			"byteLength":14128,
			"byteOffset":477308,
			"target":34962
		},
		{
			"buffer":0,
			"byteLength":6384,
			"byteOffset":491436,
			"target":34963
		},
		{
			"buffer":0,
			"byteLength":21192,
			"byteOffset":497820,
			"target":34962
		},
		{
			"buffer":0,
			"byteLength":21192,
			"byteOffset":519012,
			"target":34962
		},
		{
			"buffer":0,
			"byteLength":14128,
			"byteOffset":540204,
			"target":34962
		},
		{
			"buffer":0,
			"byteLength":21192,
			"byteOffset":554332,
			"target":34962
		},
		{
			"buffer":0,
			"byteLength":21192,
			"byteOffset":575524,
			"target":34962
		},
		{
			"buffer":0,
			"byteLength":14128,
			"byteOffset":596716,
			"target":34962
		},
		{
			"buffer":0,
			"byteLength":21192,
			"byteOffset":610844,
			"target":34962
		},
		{
			"buffer":0,
			"byteLength":21192,
			"byteOffset":632036,
			"target":34962
		},
		{
			"buffer":0,
			"byteLength":14128,
			"byteOffset":653228,
			"target":34962
		}
	],
	"buffers":[
		{
			"byteLength":667356,
			"uri":"MikasDrone.bin"
		}
	]
}
