{
	"asset":{
		"generator":"Khronos glTF Blender I/O v4.3.47",
		"version":"2.0"
	},
	"scene":0,
	"scenes":[
		{
			"name":"Scene",
			"nodes":[
				0,
				1
			]
		}
	],
	"nodes":[
		{
			"mesh":0,
			"name":"Cube.004",
			"rotation":[
				0,
				0,
				-0.7071068286895752,
				0.7071068286895752
			],
			"scale":[
				10.587727546691895,
				1.2783236503601074,
				10.587727546691895
			],
			"translation":[
				0.6831493377685547,
				-1.8840420246124268,
				0
			]
		},
		{
			"mesh":1,
			"name":"Cube.005",
			"rotation":[
				0,
				0,
				-0.7071068286895752,
				0.7071068286895752
			],
			"scale":[
				4.549278736114502,
				2.3292076587677,
				7.953020095825195
			],
			"translation":[
				0.6696563959121704,
				3.0368499755859375,
				0
			]
		}
	],
	"meshes":[
		{
			"name":"Cube.015",
			"primitives":[
				{
					"attributes":{
						"POSITION":0,
						"NORMAL":1,
						"TEXCOORD_0":2
					},
					"indices":3
				}
			]
		},
		{
			"name":"Cube.016",
			"primitives":[
				{
					"attributes":{
						"POSITION":4,
						"NORMAL":5,
						"TEXCOORD_0":6
					},
					"indices":7
				}
			]
		}
	],
	"accessors":[
		{
			"bufferView":0,
			"componentType":5126,
			"count":1851,
			"max":[
				1,
				1,
				1.9785979986190796
			],
			"min":[
				-1,
				-1,
				-1.9785979986190796
			],
			"type":"VEC3"
		},
		{
			"bufferView":1,
			"componentType":5126,
			"count":1851,
			"type":"VEC3"
		},
		{
			"bufferView":2,
			"componentType":5126,
			"count":1851,
			"type":"VEC2"
		},
		{
			"bufferView":3,
			"componentType":5123,
			"count":3492,
			"type":"SCALAR"
		},
		{
			"bufferView":4,
			"componentType":5126,
			"count":864,
			"max":[
				1,
				1,
				1
			],
			"min":[
				-1,
				-1,
				-1
			],
			"type":"VEC3"
		},
		{
			"bufferView":5,
			"componentType":5126,
			"count":864,
			"type":"VEC3"
		},
		{
			"bufferView":6,
			"componentType":5126,
			"count":864,
			"type":"VEC2"
		},
		{
			"bufferView":7,
			"componentType":5123,
			"count":1284,
			"type":"SCALAR"
		}
	],
	"bufferViews":[
		{
			"buffer":0,
			"byteLength":22212,
			"byteOffset":0,
			"target":34962
		},
		{
			"buffer":0,
			"byteLength":22212,
			"byteOffset":22212,
			"target":34962
		},
		{
			"buffer":0,
			"byteLength":14808,
			"byteOffset":44424,
			"target":34962
		},
		{
			"buffer":0,
			"byteLength":6984,
			"byteOffset":59232,
			"target":34963
		},
		{
			"buffer":0,
			"byteLength":10368,
			"byteOffset":66216,
			"target":34962
		},
		{
			"buffer":0,
			"byteLength":10368,
			"byteOffset":76584,
			"target":34962
		},
		{
			"buffer":0,
			"byteLength":6912,
			"byteOffset":86952,
			"target":34962
		},
		{
			"buffer":0,
			"byteLength":2568,
			"byteOffset":93864,
			"target":34963
		}
	],
	"buffers":[
		{
			"byteLength":96432,
			"uri":"SteeringWheel.bin"
		}
	]
}
